<svg xmlns="http://www.w3.org/2000/svg" xmlns:xlink="http://www.w3.org/1999/xlink" width="108.444" height="106.781" viewBox="0 0 108.444 106.781">
  <defs>
    <clipPath id="clip-path">
      <rect id="Rectangle_322" data-name="Rectangle 322" width="108.444" height="106.781" fill="none"/>
    </clipPath>
    <clipPath id="clip-path-2">
      <rect id="Rectangle_409" data-name="Rectangle 409" width="54.424" height="46.693" fill="none" stroke="#707070" stroke-width="1"/>
    </clipPath>
  </defs>
  <g id="Group_493" data-name="Group 493" transform="translate(-957.467 -1350.609)">
    <g id="Group_484" data-name="Group 484" transform="translate(957.467 1350.609)">
      <g id="Group_483" data-name="Group 483" transform="translate(0 0)" clip-path="url(#clip-path)">
        <path id="Path_173" data-name="Path 173" d="M1.853,19.752l17.9-17.9A6.326,6.326,0,0,1,24.226,0h59.16A6.325,6.325,0,0,1,87.86,1.852l18.731,18.731a6.326,6.326,0,0,1,1.853,4.473V81.308a6.328,6.328,0,0,1-1.853,4.474L87.445,104.928a6.326,6.326,0,0,1-4.473,1.853H25.057a6.326,6.326,0,0,1-4.473-1.853L1.853,86.2A6.326,6.326,0,0,1,0,81.724v-57.5a6.326,6.326,0,0,1,1.853-4.473" transform="translate(0 0)" fill="#55174e"/>
      </g>
    </g>
    <g id="Group_594" data-name="Group 594" transform="translate(984.477 1380.654)" clip-path="url(#clip-path-2)">
      <path id="Path_217" data-name="Path 217" d="M48.384,62.849V44.7a3.075,3.075,0,0,0-3.071-3.071H39.037A3.075,3.075,0,0,0,35.965,44.7V62.849H33.994V40.826a3.309,3.309,0,0,0-3.3-3.306H24.881a3.31,3.31,0,0,0-3.305,3.306V62.849H19.8V52.972a2.482,2.482,0,0,0-2.479-2.479H9.858A2.482,2.482,0,0,0,7.38,52.972v9.877H1v1.11H54.372v-1.11ZM39.037,42.742h6.276A1.964,1.964,0,0,1,47.274,44.7V62.78h-10.2V44.7a1.964,1.964,0,0,1,1.961-1.961m-6.153-1.916V62.78h-10.2V40.826a2.2,2.2,0,0,1,2.2-2.2h5.808a2.2,2.2,0,0,1,2.2,2.2m-14.2,12.146v9.877H8.49V52.972A1.37,1.37,0,0,1,9.858,51.6h7.461a1.371,1.371,0,0,1,1.369,1.369" transform="translate(-0.474 -17.791)" fill="#f3dfe9" stroke="#707070" stroke-width="1"/>
      <path id="Path_218" data-name="Path 218" d="M48.384,62.849V44.7a3.075,3.075,0,0,0-3.071-3.071H39.037A3.075,3.075,0,0,0,35.965,44.7V62.849H33.994V40.826a3.309,3.309,0,0,0-3.3-3.306H24.881a3.31,3.31,0,0,0-3.305,3.306V62.849H19.8V52.972a2.482,2.482,0,0,0-2.479-2.479H9.858A2.482,2.482,0,0,0,7.38,52.972v9.877H1v1.11H54.372v-1.11ZM39.037,42.742h6.276A1.964,1.964,0,0,1,47.274,44.7V62.78h-10.2V44.7A1.964,1.964,0,0,1,39.037,42.742Zm-6.153-1.916V62.78h-10.2V40.826a2.2,2.2,0,0,1,2.2-2.2h5.808A2.2,2.2,0,0,1,32.884,40.826Zm-14.2,12.146v9.877H8.49V52.972A1.37,1.37,0,0,1,9.858,51.6h7.461A1.371,1.371,0,0,1,18.689,52.972Z" transform="translate(-0.474 -17.791)" fill="none" stroke="#f3dfe9" stroke-miterlimit="10" stroke-width="1"/>
      <path id="Path_219" data-name="Path 219" d="M23.2,10.7a1.644,1.644,0,0,1,1.573-.416L38.754,14.02a2.043,2.043,0,0,0,1.948-.513L51.338,3.065,51.216,7.36l1.11.03L52.489,1.6a.583.583,0,0,0-.642-.6l-6.4.639.11,1.1,5.034-.5L40.216,12.429a1.642,1.642,0,0,1-1.57.414L24.661,9.107a2.043,2.043,0,0,0-1.952.517L11.857,20.336l.78.789Z" transform="translate(-5.622 -0.475)" fill="#f3dfe9" stroke="#707070" stroke-width="1"/>
      <path id="Path_220" data-name="Path 220" d="M23.2,10.7a1.644,1.644,0,0,1,1.573-.416L38.754,14.02a2.043,2.043,0,0,0,1.948-.513L51.338,3.065,51.216,7.36l1.11.03L52.489,1.6a.583.583,0,0,0-.642-.6l-6.4.639.11,1.1,5.034-.5L40.216,12.429a1.642,1.642,0,0,1-1.57.414L24.661,9.107a2.043,2.043,0,0,0-1.952.517L11.857,20.336l.78.789Z" transform="translate(-5.622 -0.475)" fill="none" stroke="#f3dfe9" stroke-miterlimit="10" stroke-width="1"/>
    </g>
  </g>
</svg>
